<svg xmlns="http://www.w3.org/2000/svg" width="80" height="80" viewBox="0 0 80 80">
  <defs>
    <style>
      .cls-1 {
        fill: #fff;
      }

      .cls-2, .cls-4 {
        fill: none;
      }

      .cls-2 {
        stroke: #fff;
        stroke-linecap: round;
        stroke-width: 2px;
      }

      .cls-3 {
        stroke: none;
      }
    </style>
  </defs>
  <g id="Group_309" data-name="Group 309" transform="translate(-1321 -1109)">
    <g id="Layer_2" data-name="Layer 2" transform="translate(1334.015 1122)">
      <path id="Path_30" data-name="Path 30" class="cls-1" d="M38.428,5.028c-1.721-1.363-4.081-.831-5.2-.524A5.9,5.9,0,0,0,28.794,3c-3.142,0-7.481.357-10.108,2.053C13.74,8.212,13,17.131,13,22.119V29.6a.831.831,0,0,0,.241.59c.183.175,1.255,1.072,4.746,1.072a5.112,5.112,0,0,0,4.522-2.236,9.975,9.975,0,0,0,13.7-1.089h2.56a2.494,2.494,0,0,0,2.494-2.494V22.95a2.494,2.494,0,0,0,2.494-2.494V16.3a2.494,2.494,0,0,0-1.746-2.369,9.975,9.975,0,0,0-3.583-8.9ZM18.819,15.751v4.555a2.494,2.494,0,0,1-.6-4.381ZM35.444,26.275h-5.22a1.662,1.662,0,1,0,0,1.662h3.558a8.312,8.312,0,0,1-13.3-6.65V17.131a34.763,34.763,0,0,0,6.849-.831,9.859,9.859,0,0,0,4.547-2.585c1.3,2.12,4,3.142,5.229,3.516C36.873,20.016,37.871,23.041,35.444,26.275Zm4.156-.831a.831.831,0,0,1-.831.831H37.422a16.625,16.625,0,0,0,1.347-4.156.831.831,0,0,0,.831.831Z" transform="translate(-1.352)"/>
      <path id="Path_31" data-name="Path 31" class="cls-1" d="M47.848,44.594a7.606,7.606,0,0,0-5.594-4.987h-.075L32.362,37.67a11.5,11.5,0,0,1-9.842,0c-1.322.274-9.9,1.937-10.432,2.053h0a7.481,7.481,0,0,0-5.345,5.968L5,56.09a.831.831,0,0,0,.831.973H23.634a.831.831,0,0,0,.831-.964L21.972,40.662l4.846,3.591a.831.831,0,0,0,.981,0l5.187-3.674-2.494,15.5a.956.956,0,0,0,.831.964H49.054a.831.831,0,0,0,.831-.964c-1.845-10.806-1.662-10.54-2.028-11.554Z" transform="translate(0 -5.851)"/>
    </g>
    <g id="Ellipse_7" data-name="Ellipse 7" class="cls-2" transform="translate(1321 1109)">
      <circle class="cls-3" cx="40" cy="40" r="40"/>
      <circle class="cls-4" cx="40" cy="40" r="39"/>
    </g>
  </g>
</svg>
