<svg xmlns="http://www.w3.org/2000/svg" width="80" height="80" viewBox="0 0 80 80">
  <defs>
    <style>
      .cls-1 {
        fill: #fff;
        fill-rule: evenodd;
      }

      .cls-2, .cls-4 {
        fill: none;
      }

      .cls-2 {
        stroke: #fff;
        stroke-linecap: round;
        stroke-width: 2px;
      }

      .cls-3 {
        stroke: none;
      }
    </style>
  </defs>
  <g id="Group_304" data-name="Group 304" transform="translate(-1501 -1256)">
    <path id="Path_36" data-name="Path 36" class="cls-1" d="M0,7.522A1.522,1.522,0,0,1,1.522,6H6.6q.133,0,.265.008L6.839,6H26.381A2.029,2.029,0,0,1,28.41,8.029V30.352l-9.194.142a6.086,6.086,0,0,0-10.5-3.259,4.607,4.607,0,0,1-.818.073H7.693a1.522,1.522,0,1,1,0-3.044H7.9a1.522,1.522,0,0,0,0-3.044H5.581a1.522,1.522,0,0,1,0-3.044h2.4a1.522,1.522,0,1,0,0-3.044H3.31a1.522,1.522,0,0,1,0-3.044H6.6a1.522,1.522,0,1,0,0-3.044H1.522A1.522,1.522,0,0,1,0,7.522Zm9.6-.4V7.015l-.251-.092Q9.477,7.02,9.6,7.127Zm35.046,15.6a2.03,2.03,0,0,0-.526-1.364l-5.972-6.581a2.029,2.029,0,0,0-1.5-.666H31.454V30.352h.084a6.084,6.084,0,0,1,6-5.073q.249,0,.493.02a6.084,6.084,0,0,1,5.472,4.847,2.03,2.03,0,0,0,1.137-1.823ZM13.19,28.322a3.041,3.041,0,1,1-2.871,2.03A3.045,3.045,0,0,1,13.19,28.322Zm24.352,0a3.041,3.041,0,1,1-2.871,2.03A3.045,3.045,0,0,1,37.542,28.322Z" transform="translate(1518.678 1275.795)"/>
    <g id="Ellipse_8" data-name="Ellipse 8" class="cls-2" transform="translate(1501 1256)">
      <circle class="cls-3" cx="40" cy="40" r="40"/>
      <circle class="cls-4" cx="40" cy="40" r="39"/>
    </g>
  </g>
</svg>
