<svg xmlns="http://www.w3.org/2000/svg" width="25" height="25" viewBox="0 0 25 25">
  <defs>
    <style>
      .cls-1 {
        fill: #15aaa0;
      }
    </style>
  </defs>
  <path id="Exclusion_1" data-name="Exclusion 1" class="cls-1" d="M12.5,25A12.5,12.5,0,0,1,3.661,3.661,12.5,12.5,0,0,1,21.339,21.339,12.418,12.418,0,0,1,12.5,25ZM9.04,10.54v2.3h1.983v5.89h2.371v-5.89h1.977l.3-2.3H13.394V9.074c0-.671.193-1.118,1.138-1.118h1.216V5.9a16.483,16.483,0,0,0-1.722-.091h-.049a2.778,2.778,0,0,0-2.953,3.035V10.54Z"/>
</svg>
