<svg xmlns="http://www.w3.org/2000/svg" width="80" height="80" viewBox="0 0 80 80">
  <defs>
    <style>
      .cls-1, .cls-4 {
        fill: none;
      }

      .cls-1 {
        stroke: #fff;
        stroke-linecap: round;
        stroke-width: 2px;
      }

      .cls-2 {
        fill: #fff;
      }

      .cls-3 {
        stroke: none;
      }
    </style>
  </defs>
  <g id="Group_306" data-name="Group 306" transform="translate(-873 -1256)">
    <g id="Ellipse_8" data-name="Ellipse 8" class="cls-1" transform="translate(873 1256)">
      <circle class="cls-3" cx="40" cy="40" r="40"/>
      <circle class="cls-4" cx="40" cy="40" r="39"/>
    </g>
    <g id="Group_299" data-name="Group 299" transform="translate(892.347 1277)">
      <path id="Path_32" data-name="Path 32" class="cls-2" d="M9.377,8.211A12.9,12.9,0,0,0,7.67,14.632v2.092h6.888a1.781,1.781,0,0,0,1.777-1.777l.8-12.7a12.275,12.275,0,0,0-3.077,1.235A12.877,12.877,0,0,0,9.377,8.211ZM20.589,29.929a5.658,5.658,0,0,0,5.1-8.123H15.49a5.658,5.658,0,0,0,5.1,8.123Zm12.336-11.9H8.253a4.9,4.9,0,0,0-3.386,1.358.65.65,0,0,0-.163.734.625.625,0,0,0,.594.4H35.874a.635.635,0,0,0,.6-.4.65.65,0,0,0-.163-.734A4.852,4.852,0,0,0,32.925,18.024Zm-9.376-3.077L22.657.769A.823.823,0,0,0,21.836,0H19.342a.828.828,0,0,0-.827.769l-.892,14.213a3,3,0,0,1-.559,1.737H24.12A3,3,0,0,1,23.549,14.947Zm3.077,1.777h6.888V14.632A12.668,12.668,0,0,0,24.056,2.249L24.849,14.9A1.791,1.791,0,0,0,26.626,16.724Z"/>
      <path id="Path_33" data-name="Path 33" class="cls-2" d="M32.657,39.879a3.253,3.253,0,0,1,1.282-2.459H29.173a6.958,6.958,0,1,1-13.006,0H11.406a3.212,3.212,0,0,1,1.27,2.459c0,1.48-1.171,2.791-3.036,3.444a13.379,13.379,0,0,0,1.381,3.339c1.789-.857,3.543-.769,4.586.28s1.142,2.8.28,4.586a13.4,13.4,0,0,0,3.339,1.387c.653-1.871,1.958-3.048,3.444-3.048s2.791,1.177,3.444,3.048a13.379,13.379,0,0,0,3.339-1.381c-.862-1.789-.763-3.549.286-4.592s2.8-1.136,4.58-.274A13.329,13.329,0,0,0,35.7,43.323C33.829,42.664,32.657,41.359,32.657,39.879Z" transform="translate(-2.081 -15.615)"/>
    </g>
  </g>
</svg>
