<svg xmlns="http://www.w3.org/2000/svg" width="37" height="37" viewBox="0 0 37 37">
  <path id="Exclusion_2" data-name="Exclusion 2" d="M18.5,37A18.5,18.5,0,0,1,5.418,5.418,18.5,18.5,0,0,1,31.582,31.582,18.379,18.379,0,0,1,18.5,37ZM18.461,8.745c-2.64,0-2.982.011-4.007.059a7.123,7.123,0,0,0-2.359.452A4.963,4.963,0,0,0,9.255,12.1,7.123,7.123,0,0,0,8.8,14.455c-.047,1.025-.059,1.367-.059,4.005s.011,2.981.059,4.005a7.123,7.123,0,0,0,.452,2.359A4.963,4.963,0,0,0,12.1,27.665a7.123,7.123,0,0,0,2.359.452c1.054.047,1.4.059,4.005.059,2.64,0,2.982-.011,4.005-.059a7.123,7.123,0,0,0,2.359-.452,4.977,4.977,0,0,0,2.841-2.841,7.09,7.09,0,0,0,.452-2.359c.046-1.03.057-1.373.057-4.005s-.011-2.975-.057-4.005a7.123,7.123,0,0,0-.452-2.359,4.963,4.963,0,0,0-2.841-2.841A7.107,7.107,0,0,0,22.467,8.8C21.413,8.756,21.065,8.745,18.461,8.745Zm0,17.681c-2.577,0-2.887-.01-3.925-.057a5.326,5.326,0,0,1-1.8-.334,3.214,3.214,0,0,1-1.845-1.843,5.326,5.326,0,0,1-.334-1.8c-.046-1.014-.056-1.32-.056-3.927s.01-2.911.056-3.927a5.4,5.4,0,0,1,.334-1.8,3.03,3.03,0,0,1,.727-1.118,2.967,2.967,0,0,1,1.118-.727,5.392,5.392,0,0,1,1.8-.334c1.014-.046,1.32-.056,3.925-.056,2.57,0,2.881.01,3.927.056a5.4,5.4,0,0,1,1.8.334,3.225,3.225,0,0,1,1.845,1.845,5.371,5.371,0,0,1,.334,1.8c.046,1.016.056,1.321.056,3.927s-.01,2.911-.056,3.927a5.4,5.4,0,0,1-.334,1.8,3.226,3.226,0,0,1-1.845,1.843,5.337,5.337,0,0,1-1.8.334C21.348,26.415,21.038,26.425,18.46,26.425Zm0-12.954a4.988,4.988,0,1,0,4.988,4.988A4.994,4.994,0,0,0,18.46,13.472Zm0,8.228A3.239,3.239,0,1,1,21.7,18.46,3.243,3.243,0,0,1,18.46,21.7Z" fill="#15aaa0"/>
</svg>
