<svg xmlns="http://www.w3.org/2000/svg" width="25" height="25" viewBox="0 0 25 25">
  <defs>
    <style>
      .cls-1 {
        fill: #15aaa0;
      }
    </style>
  </defs>
  <path id="Exclusion_2" data-name="Exclusion 2" class="cls-1" d="M12.5,25A12.5,12.5,0,0,1,3.661,3.661,12.5,12.5,0,0,1,21.339,21.339,12.418,12.418,0,0,1,12.5,25ZM12.474,5.909c-1.784,0-2.015.008-2.707.04a4.813,4.813,0,0,0-1.594.305,3.353,3.353,0,0,0-1.92,1.92,4.813,4.813,0,0,0-.305,1.594c-.032.692-.04.924-.04,2.706s.008,2.014.04,2.706a4.813,4.813,0,0,0,.305,1.594,3.353,3.353,0,0,0,1.92,1.92A4.813,4.813,0,0,0,9.767,19c.712.032.947.04,2.706.04,1.784,0,2.015-.008,2.706-.04a4.813,4.813,0,0,0,1.594-.305,3.363,3.363,0,0,0,1.92-1.92A4.791,4.791,0,0,0,19,15.179c.031-.7.039-.928.039-2.706s-.007-2.01-.039-2.706a4.813,4.813,0,0,0-.305-1.594,3.353,3.353,0,0,0-1.92-1.92,4.8,4.8,0,0,0-1.593-.305C14.468,5.916,14.233,5.909,12.474,5.909Zm0,11.947c-1.741,0-1.951-.007-2.652-.039A3.6,3.6,0,0,1,8.6,17.59a2.172,2.172,0,0,1-1.247-1.246,3.6,3.6,0,0,1-.226-1.219c-.031-.685-.038-.892-.038-2.653S7.1,10.506,7.13,9.82A3.651,3.651,0,0,1,7.356,8.6a2.047,2.047,0,0,1,.491-.755A2,2,0,0,1,8.6,7.355a3.643,3.643,0,0,1,1.219-.226c.685-.031.892-.038,2.652-.038,1.737,0,1.947.007,2.653.038a3.651,3.651,0,0,1,1.219.226A2.179,2.179,0,0,1,17.591,8.6a3.629,3.629,0,0,1,.226,1.219c.031.686.038.893.038,2.653s-.007,1.967-.038,2.653a3.651,3.651,0,0,1-.226,1.219,2.179,2.179,0,0,1-1.247,1.246,3.606,3.606,0,0,1-1.219.226C14.425,17.848,14.215,17.855,12.473,17.855Zm0-8.753a3.371,3.371,0,1,0,3.371,3.37A3.374,3.374,0,0,0,12.473,9.1Zm0,5.559a2.189,2.189,0,1,1,2.189-2.189A2.191,2.191,0,0,1,12.473,14.662Z"/>
</svg>
