<svg xmlns="http://www.w3.org/2000/svg" width="20" height="20" viewBox="0 0 20 20">
  <g id="_40" data-name="40" transform="translate(-2 -2)">
    <path id="Path_4" data-name="Path 4" d="M14.45,16.07C16,13.61,18,10,18,8A6,6,0,0,0,6,8c0,2,2,5.61,3.55,8.07C6.4,16.26,2,16.89,2,19c0,2.78,7.65,3,10,3s10-.22,10-3C22,16.89,17.6,16.26,14.45,16.07ZM8,8a4,4,0,0,1,8,0c0,1.5-2.1,5.24-3.87,8h-.26C10.1,13.24,8,9.5,8,8Zm4,12a22.55,22.55,0,0,1-7.62-1,20.63,20.63,0,0,1,6.43-1l.37.55a1,1,0,0,0,1.64,0l.37-.55a20.63,20.63,0,0,1,6.43,1A22.55,22.55,0,0,1,12,20Z" fill="#15aaa0"/>
    <path id="Path_5" data-name="Path 5" d="M14.67,8A2.67,2.67,0,1,0,12,10.67,2.67,2.67,0,0,0,14.67,8ZM11.33,8a.67.67,0,1,1,.67.67A.67.67,0,0,1,11.33,8Z" fill="#15aaa0"/>
  </g>
</svg>
