<svg xmlns="http://www.w3.org/2000/svg" width="16.829" height="16.795" viewBox="0 0 16.829 16.795">
  <path id="Path" d="M12.932,16.8A12.949,12.949,0,0,1,0,3.863,3.863,3.863,0,0,1,3.863,0a3.309,3.309,0,0,1,.647.059,3.183,3.183,0,0,1,.6.151A.84.84,0,0,1,5.66.84L6.81,5.878a.84.84,0,0,1-.218.773c-.109.118-.118.126-1.15.663a8.322,8.322,0,0,0,4.09,4.106c.546-1.041.554-1.05.672-1.159a.84.84,0,0,1,.773-.218l5.039,1.15a.84.84,0,0,1,.6.546,3.645,3.645,0,0,1,.16.613,4.006,4.006,0,0,1,.05.638,3.863,3.863,0,0,1-3.9,3.8Z" fill="#15aaa0"/>
</svg>
