<svg xmlns="http://www.w3.org/2000/svg" width="80" height="80" viewBox="0 0 80 80">
  <defs>
    <style>
      .cls-1 {
        fill: #fff;
      }

      .cls-2, .cls-4 {
        fill: none;
      }

      .cls-2 {
        stroke: #fff;
        stroke-linecap: round;
        stroke-width: 2px;
      }

      .cls-3 {
        stroke: none;
      }
    </style>
  </defs>
  <g id="Group_307" data-name="Group 307" transform="translate(-717 -1109)">
    <g id="Group_302" data-name="Group 302">
      <g id="Group_298" data-name="Group 298" transform="translate(735.353 1092.751)">
        <path id="Path_23" data-name="Path 23" class="cls-1" d="M42.795,278.2a3.842,3.842,0,0,0-3.516-.2.051.051,0,0,1-.023.009s-.014,0-.018.009,0,0-.014,0l-.009,0,0,0a.5.5,0,0,0-.059.023c-.427.19-2.092.93-7.754,3.435v-.009c-1.27-1.8-3.507-.472-6.538-.209-4.7-2.409-9.138-4.769-14.007-4.619V286.3h.808l10.109,3.993a5.669,5.669,0,0,0,5.041-.445L42.8,279.977A1.038,1.038,0,0,0,42.795,278.2ZM9,275.468H8.187v-.607A.859.859,0,0,0,7.328,274H1.506a.859.859,0,0,0-.859.859v13.758a.859.859,0,0,0,.859.859H7.328a.859.859,0,0,0,.859-.859v-.607H9a.947.947,0,0,0,.947-.947v-10.65A.947.947,0,0,0,9,275.468ZM5.56,288.161A1.062,1.062,0,1,1,6.621,287.1,1.065,1.065,0,0,1,5.56,288.161Z" transform="translate(0 -216.064)"/>
        <path id="Path_24" data-name="Path 24" class="cls-1" d="M184.337,51.376l1.814.209a8.608,8.608,0,0,0,1.107,2.667l-1.143,1.433a.943.943,0,0,0,.073,1.252l1.252,1.252a.943.943,0,0,0,1.252.073l1.433-1.143a8.6,8.6,0,0,0,2.667,1.107L193,60.039c.142,1.256,1.791.714,2.694.835a.935.935,0,0,0,.934-.835l.209-1.814a8.6,8.6,0,0,0,2.667-1.107l1.433,1.143a.943.943,0,0,0,1.252-.073l1.252-1.252a.943.943,0,0,0,.073-1.252l-1.143-1.433a8.607,8.607,0,0,0,1.107-2.667l1.814-.209a.935.935,0,0,0,.835-.934v-1.76a.935.935,0,0,0-.835-.934l-1.814-.209a8.607,8.607,0,0,0-1.107-2.667l1.143-1.433a.943.943,0,0,0-.073-1.252l-1.252-1.252a.943.943,0,0,0-1.252-.073L199.5,42a8.6,8.6,0,0,0-2.667-1.107l-.209-1.814a.935.935,0,0,0-.934-.835h-1.76a.935.935,0,0,0-.934.835l-.209,1.814A8.6,8.6,0,0,0,190.124,42l-1.433-1.143a.943.943,0,0,0-1.252.073l-1.252,1.252a.943.943,0,0,0-.073,1.252l1.143,1.433a8.607,8.607,0,0,0-1.107,2.667l-1.814.209a.935.935,0,0,0-.835.934v1.76A.934.934,0,0,0,184.337,51.376Zm7.558-4.724a4.119,4.119,0,1,1,0,5.82A4.12,4.12,0,0,1,191.9,46.651Z" transform="translate(-167.584)"/>
      </g>
      <g id="Ellipse_5" data-name="Ellipse 5" class="cls-2" transform="translate(717 1109)">
        <circle class="cls-3" cx="40" cy="40" r="40"/>
        <circle class="cls-4" cx="40" cy="40" r="39"/>
      </g>
    </g>
  </g>
</svg>
