<svg xmlns="http://www.w3.org/2000/svg" width="80" height="80" viewBox="0 0 80 80">
  <defs>
    <style>
      .cls-1, .cls-4 {
        fill: none;
      }

      .cls-1 {
        stroke: #fff;
        stroke-linecap: round;
        stroke-width: 2px;
      }

      .cls-2 {
        fill: #fff;
      }

      .cls-3 {
        stroke: none;
      }
    </style>
  </defs>
  <g id="Group_305" data-name="Group 305" transform="translate(-1166 -1257)">
    <g id="Ellipse_8" data-name="Ellipse 8" class="cls-1" transform="translate(1166 1257)">
      <circle class="cls-3" cx="40" cy="40" r="40"/>
      <circle class="cls-4" cx="40" cy="40" r="39"/>
    </g>
    <g id="Group_300" data-name="Group 300" transform="translate(1181.016 1273.015)">
      <path id="Path_34" data-name="Path 34" class="cls-2" d="M18.1,41.381A2.71,2.71,0,0,1,14.5,39.308l-.476-2.682-4.6,6.4a.9.9,0,0,0,.966,1.4l5.692-1.519L17.619,48.6a.9.9,0,0,0,1.694.14l3.249-7.2-1.141-1.351Zm25.829,1.645-5.3-7.366-.966.175-.623,3.473a2.725,2.725,0,0,1-1.316,1.876,2.628,2.628,0,0,1-2.276.2l-3.256-1.176,3.851,8.528a.9.9,0,0,0,1.694-.14l1.519-5.692,5.692,1.519A.907.907,0,0,0,43.925,43.026ZM25.776,14.9a9.046,9.046,0,1,0,9.046,9.046A9.06,9.06,0,0,0,25.776,14.9Zm3.767,14.312-3.767-2.738-3.767,2.738,1.442-4.432-3.767-2.738h4.656l1.442-4.432,1.442,4.432h4.656l-3.767,2.738Z" transform="translate(-0.682 -3.872)"/>
      <path id="Path_35" data-name="Path 35" class="cls-2" d="M34.582,35.114l.84-4.719,4.712-.84a.9.9,0,0,0,.693-1.2l-1.624-4.5,3.662-3.095a.9.9,0,0,0,0-1.379L39.2,16.286l1.624-4.509a.905.905,0,0,0-.693-1.2l-4.712-.84-.84-4.719a.938.938,0,0,0-1.2-.693L28.876,5.951,25.781,2.29a.933.933,0,0,0-1.379,0L21.307,5.951,16.8,4.327a.906.906,0,0,0-1.2.693l-.84,4.719-4.719.84a.9.9,0,0,0-.693,1.2l1.624,4.509L7.31,19.381a.889.889,0,0,0,0,1.379l3.662,3.088L9.348,28.357a.89.89,0,0,0,.693,1.2l4.719.84.84,4.719a.915.915,0,0,0,1.2.693l4.509-1.624L24.4,37.845a.9.9,0,0,0,1.379,0l3.095-3.662,4.509,1.624A.9.9,0,0,0,34.582,35.114Zm-9.487-4.187A10.853,10.853,0,1,1,35.947,20.074,10.862,10.862,0,0,1,25.095,30.927Z"/>
    </g>
  </g>
</svg>
